<svg width="180" height="180" viewBox="0 0 180 180" fill="none" xmlns="http://www.w3.org/2000/svg">
<path d="M45.0732 18H98.4774L124.417 43.9474C128.949 48.5194 128.949 55.9049 124.417 60.4771C122.23 62.6654 119.3 63.9158 116.174 63.9158C113.049 63.9158 110.119 62.7044 107.931 60.4771L78.8658 31.4035C76.8734 29.4106 73.6699 29.4106 71.6776 31.4035L18 85.0957V45.0806C18 30.114 30.1107 18 45.0732 18Z" fill="#80CD75"/>
<path d="M134.262 124.448C134.262 122.104 135.16 119.915 136.801 118.274C138.442 116.633 140.629 115.734 142.974 115.734C145.318 115.734 147.505 116.633 149.146 118.274L161.96 131.091V134.882C161.96 140.783 160.046 146.214 156.881 150.669L136.84 130.622C135.16 128.981 134.262 126.793 134.262 124.448Z" fill="#80CD75"/>
<path d="M118.283 136.873C121.682 133.473 127.23 133.473 130.628 136.873L150.67 156.92C146.216 160.124 140.786 162 134.887 162H131.097L118.283 149.182C114.885 145.783 114.885 140.273 118.283 136.873Z" fill="#80CD75"/>
<path d="M112.036 155.395L118.638 162H97.2298C97.1124 159.616 97.9328 157.232 99.73 155.435C103.129 151.996 108.637 151.996 112.036 155.395Z" fill="#80CD75"/>
<path d="M155.393 99.747C157.034 98.1058 159.222 97.207 161.567 97.207C161.723 97.207 161.84 97.2461 161.997 97.2461V118.66L155.432 112.095C151.993 108.657 151.993 103.147 155.393 99.747Z" fill="#80CD75"/>
<path d="M100.743 67.6282C104.845 71.7313 110.315 74.0369 116.174 74.0369C121.995 74.0369 127.504 71.7703 131.606 67.6282C140.122 59.1093 140.122 45.2369 131.606 36.7571L112.854 18H134.887C149.85 18 161.961 30.114 161.961 45.0806V88.3782C161.804 88.3782 161.687 88.3391 161.531 88.3391C156.843 88.3391 152.467 90.1759 149.147 93.4583C145.474 97.1316 143.795 102.094 144.068 106.94C143.716 106.901 143.365 106.901 142.974 106.901C138.286 106.901 133.911 108.737 130.59 112.02C127.269 115.342 125.472 119.718 125.472 124.408C125.472 124.759 125.511 125.15 125.511 125.502C120.667 125.189 115.745 126.869 112.033 130.582C108.361 134.294 106.681 139.218 106.955 144.063C102.111 143.751 97.149 145.431 93.4767 149.144C89.9608 152.66 88.281 157.311 88.3591 161.961H59.9967L93.2424 128.706C95.2348 126.713 95.2348 123.509 93.2424 121.516C91.25 119.523 88.0465 119.523 86.0541 121.516L45.6983 162H45.1122C39.4866 162 34.2517 160.28 29.8762 157.311L75.8577 111.317C77.8501 109.324 77.8501 106.119 75.8577 104.126C73.8653 102.133 70.6618 102.133 68.6694 104.126L22.688 150.12C19.7189 145.783 18 140.547 18 134.88V134.294L58.434 93.8491C60.4264 91.8562 60.4264 88.6518 58.434 86.6588C56.4415 84.6659 53.2381 84.6659 51.2456 86.6588L18 119.914V99.398L75.2718 42.1497L100.743 67.6282Z" fill="#008560"/>
</svg>
